<?xml version="1.0" encoding="UTF-8" standalone="no"?>
<!DOCTYPE svg PUBLIC "-//W3C//DTD SVG 1.1//EN" "http://www.w3.org/Graphics/SVG/1.1/DTD/svg11.dtd">
<svg width="100%" height="100%" viewBox="0 0 512 512" version="1.1" xmlns="http://www.w3.org/2000/svg" xmlns:xlink="http://www.w3.org/1999/xlink" xml:space="preserve" xmlns:serif="http://www.serif.com/" style="fill-rule:evenodd;clip-rule:evenodd;stroke-linecap:round;stroke-linejoin:round;stroke-miterlimit:1.5;">
    <rect id="Axis-Icon" serif:id="Axis Icon" x="0" y="0" width="512" height="512" style="fill:none;"/>
    <g id="Axis-Icon1" serif:id="Axis Icon">
        <g>
            <path d="M0,256L512,256" style="fill:none;"/>
            <path d="M100,206L0,256L100,306C75,281 75,231 100,206Z" style="fill:white;"/>
            <path d="M412,206L512,256L412,306C437,281 437,231 412,206Z" style="fill:white;"/>
            <path d="M80,256L432,256" style="fill:none;stroke:white;stroke-width:33.33px;"/>
        </g>
        <g>
            <path d="M256,0L256,512" style="fill:none;"/>
            <path d="M306,100L256,0L206,100C231,75 281,75 306,100Z" style="fill:white;"/>
            <path d="M306,412L256,512L206,412C231,437 281,437 306,412Z" style="fill:white;"/>
            <path d="M256,80L256,432" style="fill:none;stroke:white;stroke-width:33.33px;"/>
        </g>
    </g>
</svg>
